<?xml version="1.0" encoding="utf-8"?>
<!-- Generator: Adobe Illustrator 16.0.0, SVG Export Plug-In . SVG Version: 6.00 Build 0)  -->
<!DOCTYPE svg PUBLIC "-//W3C//DTD SVG 1.1//EN" "http://www.w3.org/Graphics/SVG/1.1/DTD/svg11.dtd">
<svg version="1.1" id="Layer_1" xmlns="http://www.w3.org/2000/svg" xmlns:xlink="http://www.w3.org/1999/xlink" x="0px" y="0px"
	 width="2160px" height="1800px" viewBox="0 0 2160 1800" enable-background="new 0 0 2160 1800" xml:space="preserve">
<g>
	<path fill="none" d="M30.109,336.633v612h1940.4v-612H30.109z"/>
	<path fill="#FFFFFF" d="M1208.291,352.8v80.641h2.291c21.73-30.764,47.781-54.524,78.545-71.477
		c30.437-16.888,65.455-25.331,105.055-25.331c37.964,0,72.654,7.2,104.072,21.861c31.288,14.597,55.113,40.386,71.346,77.236
		c17.804-26.182,42.022-49.091,72.655-69.186c30.632-19.963,66.764-29.912,108.654-29.912c31.745,0,61.2,3.927,88.363,11.52
		c27.099,7.658,50.27,19.964,69.644,36.852c19.375,16.887,34.495,39.011,45.295,66.305c10.865,27.295,16.363,60.219,16.363,98.575
		v398.749h-165.076V610.887c0-19.897-0.785-38.617-2.356-56.29c-1.505-17.804-5.76-33.12-12.698-46.276
		c-7.004-13.091-17.279-23.564-30.764-31.419c-13.614-7.854-32.072-11.781-55.243-11.781c-23.236,0-42.022,4.582-56.291,13.091
		c-14.399,8.64-25.658,20.291-33.774,34.69c-8.117,13.877-13.549,30.109-16.363,48.437c-2.619,17.673-3.928,36-3.928,54.458V947.65
		h-164.945V613.833c0-17.673-0.459-35.346-1.31-52.364c-0.654-17.476-3.927-33.382-9.817-47.978
		c-5.892-14.662-15.514-26.183-28.997-35.149c-13.091-8.509-33.382-13.091-59.563-13.091c-7.854,0-17.673,1.964-30.764,5.236
		c-12.437,3.272-24.873,9.818-37.309,19.637c-11.782,9.817-22.255,23.563-30.764,41.694c-8.51,18.327-12.437,41.891-12.437,71.084
		v345.6h-164.946V352.8H1208.291z M602.967,948.633L496.015,548.705h-2.291L391.418,948.633H220.582L30.109,352.8h174.306
		l110.356,404.509h1.963L416.945,352.8h160.494l102.24,403.396h2.291L792,352.8h169.658L772.363,948.633H602.836H602.967z"/>
	<path fill="none" d="M2076.218,475.2h78.808V317.717h-157.746V475.2h78.873H2076.218z"/>
	<path fill="#FFFFFF" d="M2057.433,391.025h6.938c9.818,0,15.905-0.262,18.327-1.047c2.356-0.655,4.188-1.964,5.563-3.928
		c1.964-1.964,2.618-4.058,2.618-6.545c-0.065-2.226-0.72-4.32-2.029-6.153c-1.31-1.767-3.272-3.076-5.891-3.927
		c-2.618-0.655-8.509-1.113-18.327-1.113h-7.2v22.778V391.025z M2040.414,438.611v-83.586h17.019c15.971,0,24.872,0,26.836,0.196
		c5.63,0.458,10.015,1.637,13.091,3.272c3.273,1.833,5.761,4.582,7.855,8.117c2.094,3.6,3.142,7.592,3.142,11.978
		c0,6.022-1.964,11.128-5.892,15.447c-3.927,4.32-9.49,6.938-16.625,7.985c2.487,0.917,4.451,1.964,5.891,3.143
		c1.31,1.112,3.273,3.272,5.629,6.414c0.655,0.851,2.619,4.189,6.153,10.146l9.818,16.363h-20.946l-7.003-13.745
		c-4.713-9.164-8.64-15.055-11.782-17.542c-3.011-2.356-6.938-3.6-11.781-3.6h-4.255v34.363h-17.149V438.611z M2076.218,333.229
		c-10.8,0-21.207,2.618-31.222,8.051c-9.949,5.367-17.804,13.091-23.563,23.302c-5.694,10.146-8.509,20.749-8.509,31.876
		c0,11.128,2.749,21.601,8.378,31.549c5.563,10.015,13.353,17.869,23.433,23.434c10.015,5.629,20.487,8.509,31.418,8.509
		c11.127,0,21.6-2.88,31.68-8.509c9.949-5.564,17.805-13.419,23.434-23.434c5.629-10.014,8.509-20.487,8.509-31.549
		c0-11.127-2.945-21.73-8.706-31.876c-5.694-10.211-13.549-17.935-23.562-23.302c-10.016-5.433-20.422-8.116-31.288-8.116V333.229z
		 M2076.218,317.717c13.419,0,26.444,3.403,38.88,10.145c12.437,6.742,22.255,16.364,29.455,28.997
		c7.199,12.633,11.127,25.854,11.127,39.6s-3.272,26.837-10.473,39.272c-6.545,12.437-16.363,22.059-28.8,29.062
		c-12.437,6.938-25.527,10.473-39.272,10.473c-13.746,0-26.837-3.535-39.273-10.473c-12.436-7.004-22.254-16.691-29.127-29.128
		c-7.004-12.436-10.473-25.526-10.473-39.272c-1.047-13.745,2.553-26.836,9.753-39.403c6.872-12.698,16.69-22.386,29.127-29.128
		C2049.578,321.12,2062.669,317.717,2076.218,317.717z"/>
	<path fill="#FFFFFF" d="M1007.346,1297.833c356.596,0,537.119-134.313,537.119-134.313l76.713,102.961
		c0,0-266.269,223.854-613.963,223.854S393.251,1266.48,393.251,1266.48l76.844-103.419c0,0,180.523,134.183,537.251,134.183"/>
</g>
</svg>
